<svg xmlns="http://www.w3.org/2000/svg" xmlns:xlink="http://www.w3.org/1999/xlink" width="1600" height="840" viewBox="0 0 1600 840"><rect width="1600" height="840" fill="#f7f7f4"/><text x="60" y="78" font-family="system-ui,-apple-system,'Segoe UI',Helvetica,Arial,sans-serif" font-size="40" font-weight="700" fill="#161616">Viston — conceitos (rodada 2)</text><text x="60" y="116" font-family="system-ui,-apple-system,'Segoe UI',Helvetica,Arial,sans-serif" font-size="20" fill="#6b6b6b">Concepts for review — pick a direction (or tell me what you like in each).</text><rect x="60" y="150" width="474.667" height="630" rx="18" fill="#fff" stroke="#161616" stroke-width="2"/><g><svg xmlns="http://www.w3.org/2000/svg" viewBox="0 0 256 256" x="90" y="190" width="414.667" height="300" preserveAspectRatio="xMidYMid meet">
  <title>Viston — Andares</title>
  <path fill="#0B0B0B" fill-rule="evenodd" d="M76 24H140A16 16 0 0 1 156 40V216A16 16 0 0 1 140 232H76A16 16 0 0 1 60 216V40A16 16 0 0 1 76 24ZM60 61V81H156V61ZM60 118V138H156V118ZM60 175V195H156V175Z"/>
  <path fill="#F5C518" d="M60 118H180A10 10 0 0 1 180 138H60Z"/>
</svg>
</g><g><svg xmlns="http://www.w3.org/2000/svg" viewBox="0 0 256 256" x="90" y="516" width="64" height="64" preserveAspectRatio="xMidYMid meet">
  <title>Viston — Andares</title>
  <path fill="#0B0B0B" fill-rule="evenodd" d="M76 24H140A16 16 0 0 1 156 40V216A16 16 0 0 1 140 232H76A16 16 0 0 1 60 216V40A16 16 0 0 1 76 24ZM60 61V81H156V61ZM60 118V138H156V118ZM60 175V195H156V175Z"/>
  <path fill="#F5C518" d="M60 118H180A10 10 0 0 1 180 138H60Z"/>
</svg>
</g><text x="122" y="600" font-family="system-ui,-apple-system,'Segoe UI',Helvetica,Arial,sans-serif" font-size="12" fill="#8a8a8a" text-anchor="middle">64px</text><g><svg xmlns="http://www.w3.org/2000/svg" viewBox="0 0 256 256" x="180" y="548" width="32" height="32" preserveAspectRatio="xMidYMid meet">
  <title>Viston — Andares</title>
  <path fill="#0B0B0B" fill-rule="evenodd" d="M76 24H140A16 16 0 0 1 156 40V216A16 16 0 0 1 140 232H76A16 16 0 0 1 60 216V40A16 16 0 0 1 76 24ZM60 61V81H156V61ZM60 118V138H156V118ZM60 175V195H156V175Z"/>
  <path fill="#F5C518" d="M60 118H180A10 10 0 0 1 180 138H60Z"/>
</svg>
</g><text x="196" y="600" font-family="system-ui,-apple-system,'Segoe UI',Helvetica,Arial,sans-serif" font-size="12" fill="#8a8a8a" text-anchor="middle">32px</text><g><svg xmlns="http://www.w3.org/2000/svg" viewBox="0 0 256 256" x="238" y="564" width="16" height="16" preserveAspectRatio="xMidYMid meet">
  <title>Viston — Andares</title>
  <path fill="#0B0B0B" fill-rule="evenodd" d="M76 24H140A16 16 0 0 1 156 40V216A16 16 0 0 1 140 232H76A16 16 0 0 1 60 216V40A16 16 0 0 1 76 24ZM60 61V81H156V61ZM60 118V138H156V118ZM60 175V195H156V175Z"/>
  <path fill="#F5C518" d="M60 118H180A10 10 0 0 1 180 138H60Z"/>
</svg>
</g><text x="246" y="600" font-family="system-ui,-apple-system,'Segoe UI',Helvetica,Arial,sans-serif" font-size="12" fill="#8a8a8a" text-anchor="middle">16px</text><text x="90.0" y="636" font-family="system-ui,-apple-system,'Segoe UI',Helvetica,Arial,sans-serif" font-size="26" font-weight="700" fill="#161616">A · Andares</text><text x="90.0" y="664" font-family="system-ui,-apple-system,'Segoe UI',Helvetica,Arial,sans-serif" font-size="15" font-weight="700" fill="#161616" letter-spacing="1.5">RECOMMENDED</text><text x="90.0" y="698" font-family="system-ui,-apple-system,'Segoe UI',Helvetica,Arial,sans-serif" font-size="19" fill="#555">Uma torre em andares; o andar com</text><text x="90.0" y="724" font-family="system-ui,-apple-system,'Segoe UI',Helvetica,Arial,sans-serif" font-size="19" fill="#555">ocorrência avança em dourado.</text><rect x="562.667" y="150" width="474.667" height="630" rx="18" fill="#fff" stroke="#e4e4e0" stroke-width="1"/><g><svg xmlns="http://www.w3.org/2000/svg" viewBox="0 0 256 256" x="592.667" y="190" width="414.667" height="300" preserveAspectRatio="xMidYMid meet">
  <title>Viston — Moldura</title>
  <g fill="#0B0B0B">
    <path d="M24 24H96V46H46V96H24Z"/>
    <path d="M232 24H160V46H210V96H232Z"/>
    <path d="M24 232H96V210H46V160H24Z"/>
  </g>
  <circle cx="196" cy="196" r="36" fill="#F5C518"/>
</svg>
</g><g><svg xmlns="http://www.w3.org/2000/svg" viewBox="0 0 256 256" x="592.667" y="516" width="64" height="64" preserveAspectRatio="xMidYMid meet">
  <title>Viston — Moldura</title>
  <g fill="#0B0B0B">
    <path d="M24 24H96V46H46V96H24Z"/>
    <path d="M232 24H160V46H210V96H232Z"/>
    <path d="M24 232H96V210H46V160H24Z"/>
  </g>
  <circle cx="196" cy="196" r="36" fill="#F5C518"/>
</svg>
</g><text x="624.667" y="600" font-family="system-ui,-apple-system,'Segoe UI',Helvetica,Arial,sans-serif" font-size="12" fill="#8a8a8a" text-anchor="middle">64px</text><g><svg xmlns="http://www.w3.org/2000/svg" viewBox="0 0 256 256" x="682.667" y="548" width="32" height="32" preserveAspectRatio="xMidYMid meet">
  <title>Viston — Moldura</title>
  <g fill="#0B0B0B">
    <path d="M24 24H96V46H46V96H24Z"/>
    <path d="M232 24H160V46H210V96H232Z"/>
    <path d="M24 232H96V210H46V160H24Z"/>
  </g>
  <circle cx="196" cy="196" r="36" fill="#F5C518"/>
</svg>
</g><text x="698.667" y="600" font-family="system-ui,-apple-system,'Segoe UI',Helvetica,Arial,sans-serif" font-size="12" fill="#8a8a8a" text-anchor="middle">32px</text><g><svg xmlns="http://www.w3.org/2000/svg" viewBox="0 0 256 256" x="740.667" y="564" width="16" height="16" preserveAspectRatio="xMidYMid meet">
  <title>Viston — Moldura</title>
  <g fill="#0B0B0B">
    <path d="M24 24H96V46H46V96H24Z"/>
    <path d="M232 24H160V46H210V96H232Z"/>
    <path d="M24 232H96V210H46V160H24Z"/>
  </g>
  <circle cx="196" cy="196" r="36" fill="#F5C518"/>
</svg>
</g><text x="748.667" y="600" font-family="system-ui,-apple-system,'Segoe UI',Helvetica,Arial,sans-serif" font-size="12" fill="#8a8a8a" text-anchor="middle">16px</text><text x="592.6666666666667" y="636" font-family="system-ui,-apple-system,'Segoe UI',Helvetica,Arial,sans-serif" font-size="26" font-weight="700" fill="#161616">B · Moldura</text><text x="592.6666666666667" y="670" font-family="system-ui,-apple-system,'Segoe UI',Helvetica,Arial,sans-serif" font-size="19" fill="#555">Enquadramento de vistoria com o quarto</text><text x="592.6666666666667" y="696" font-family="system-ui,-apple-system,'Segoe UI',Helvetica,Arial,sans-serif" font-size="19" fill="#555">canto ocupado pelo achado.</text><rect x="1065.33" y="150" width="474.667" height="630" rx="18" fill="#fff" stroke="#e4e4e0" stroke-width="1"/><g><svg xmlns="http://www.w3.org/2000/svg" viewBox="0 0 256 256" x="1095.33" y="190" width="414.667" height="300" preserveAspectRatio="xMidYMid meet">
  <title>Viston — Prumo</title>
  <circle cx="128" cy="40" r="16" fill="#0B0B0B"/>
  <rect x="120" y="40" width="16" height="72" fill="#0B0B0B"/>
  <path d="M128 100L184 166L128 232L72 166Z" fill="#F5C518"/>
</svg>
</g><g><svg xmlns="http://www.w3.org/2000/svg" viewBox="0 0 256 256" x="1095.33" y="516" width="64" height="64" preserveAspectRatio="xMidYMid meet">
  <title>Viston — Prumo</title>
  <circle cx="128" cy="40" r="16" fill="#0B0B0B"/>
  <rect x="120" y="40" width="16" height="72" fill="#0B0B0B"/>
  <path d="M128 100L184 166L128 232L72 166Z" fill="#F5C518"/>
</svg>
</g><text x="1127.33" y="600" font-family="system-ui,-apple-system,'Segoe UI',Helvetica,Arial,sans-serif" font-size="12" fill="#8a8a8a" text-anchor="middle">64px</text><g><svg xmlns="http://www.w3.org/2000/svg" viewBox="0 0 256 256" x="1185.33" y="548" width="32" height="32" preserveAspectRatio="xMidYMid meet">
  <title>Viston — Prumo</title>
  <circle cx="128" cy="40" r="16" fill="#0B0B0B"/>
  <rect x="120" y="40" width="16" height="72" fill="#0B0B0B"/>
  <path d="M128 100L184 166L128 232L72 166Z" fill="#F5C518"/>
</svg>
</g><text x="1201.33" y="600" font-family="system-ui,-apple-system,'Segoe UI',Helvetica,Arial,sans-serif" font-size="12" fill="#8a8a8a" text-anchor="middle">32px</text><g><svg xmlns="http://www.w3.org/2000/svg" viewBox="0 0 256 256" x="1243.33" y="564" width="16" height="16" preserveAspectRatio="xMidYMid meet">
  <title>Viston — Prumo</title>
  <circle cx="128" cy="40" r="16" fill="#0B0B0B"/>
  <rect x="120" y="40" width="16" height="72" fill="#0B0B0B"/>
  <path d="M128 100L184 166L128 232L72 166Z" fill="#F5C518"/>
</svg>
</g><text x="1251.33" y="600" font-family="system-ui,-apple-system,'Segoe UI',Helvetica,Arial,sans-serif" font-size="12" fill="#8a8a8a" text-anchor="middle">16px</text><text x="1095.3333333333335" y="636" font-family="system-ui,-apple-system,'Segoe UI',Helvetica,Arial,sans-serif" font-size="26" font-weight="700" fill="#161616">C · Prumo</text><text x="1095.3333333333335" y="670" font-family="system-ui,-apple-system,'Segoe UI',Helvetica,Arial,sans-serif" font-size="19" fill="#555">O prumo do construtor: a linha que confere</text><text x="1095.3333333333335" y="696" font-family="system-ui,-apple-system,'Segoe UI',Helvetica,Arial,sans-serif" font-size="19" fill="#555">se o prédio está de pé.</text></svg>
